<svg width="21" height="19" viewBox="0 0 21 19" fill="none" xmlns="http://www.w3.org/2000/svg">
<path d="M16.6401 17.5454H2.01565V4.32054H10.8036L12.1331 3.11829H2.01565C1.66305 3.11829 1.32489 3.24495 1.07556 3.47042C0.826228 3.69589 0.686157 4.00169 0.686157 4.32054V17.5454C0.686157 17.8642 0.826228 18.17 1.07556 18.3955C1.32489 18.621 1.66305 18.7476 2.01565 18.7476H16.6401C16.9927 18.7476 17.3308 18.621 17.5802 18.3955C17.8295 18.17 17.9696 17.8642 17.9696 17.5454V8.52845L16.6401 9.73071V17.5454Z" fill="#757575"/>
<path d="M20.3162 3.02213L18.076 0.996319C17.9766 0.906168 17.8585 0.834642 17.7285 0.785839C17.5984 0.737035 17.459 0.711914 17.3182 0.711914C17.1774 0.711914 17.038 0.737035 16.908 0.785839C16.7779 0.834642 16.6598 0.906168 16.5604 0.996319L7.44672 9.28589L6.70886 12.1773C6.67742 12.3175 6.68073 12.4622 6.71853 12.6011C6.75634 12.7399 6.82771 12.8695 6.92751 12.9804C7.02731 13.0914 7.15305 13.1809 7.2957 13.2427C7.43835 13.3044 7.59436 13.3368 7.75251 13.3375C7.83425 13.3456 7.91673 13.3456 7.99846 13.3375L11.2225 12.6943L20.3162 4.3927C20.4159 4.3028 20.495 4.19599 20.549 4.07839C20.6029 3.9608 20.6307 3.83473 20.6307 3.70741C20.6307 3.58009 20.6029 3.45403 20.549 3.33643C20.495 3.21884 20.4159 3.11203 20.3162 3.02213ZM10.5311 11.5822L8.09818 12.0691L8.66321 9.88702L15.5234 3.64129L17.398 5.33647L10.5311 11.5822ZM18.1491 4.6572L16.2746 2.96201L17.3049 2.01223L19.1928 3.71944L18.1491 4.6572Z" fill="#757575"/>
</svg>
