<svg width="15" height="15" viewBox="0 0 15 15" fill="none" xmlns="http://www.w3.org/2000/svg">
<path fill-rule="evenodd" clip-rule="evenodd" d="M5.50531 5.08101H8.09789V6.37198C8.47135 5.6295 9.42908 4.96238 10.8678 4.96238C13.6258 4.96238 14.2806 6.44037 14.2806 9.15211V14.1743H11.4883V9.76968C11.4883 8.2254 11.1149 7.35452 10.1641 7.35452C8.84551 7.35452 8.29753 8.29309 8.29753 9.76898V14.1743H5.50531V5.08101ZM0.71735 14.0557H3.50957V4.96238H0.71735V14.0557ZM3.90956 1.99734C3.90966 2.2313 3.86325 2.46295 3.77301 2.67882C3.68277 2.8947 3.55051 3.09049 3.38392 3.25482C3.04634 3.5902 2.5894 3.77794 2.11346 3.77679C1.63836 3.77647 1.18247 3.58921 0.844396 3.25551C0.678406 3.09063 0.546595 2.89462 0.456517 2.67872C0.366438 2.46282 0.319862 2.23127 0.319458 1.99734C0.319458 1.52492 0.507933 1.07273 0.845094 0.739168C1.18287 0.405022 1.63895 0.217687 2.11416 0.217896C2.59023 0.217896 3.04676 0.40561 3.38392 0.739168C3.72038 1.07273 3.90956 1.52492 3.90956 1.99734Z" fill="#FDFEFF"/>
</svg>
