<svg width="19" height="15" viewBox="0 0 19 15" fill="none" xmlns="http://www.w3.org/2000/svg">
<path d="M18.4916 1.87643C17.8315 2.15619 17.1224 2.34522 16.3769 2.43065C17.1461 1.99045 17.7216 1.29762 17.996 0.481437C17.2733 0.891989 16.4823 1.18097 15.6575 1.33583C15.1029 0.769407 14.3682 0.393976 13.5676 0.26782C12.767 0.141663 11.9452 0.27184 11.2299 0.63814C10.5146 1.00444 9.94571 1.58637 9.61161 2.29358C9.27751 3.00079 9.19688 3.79371 9.38223 4.54924C7.91791 4.47892 6.4854 4.1149 5.17769 3.4808C3.86997 2.8467 2.71628 1.9567 1.79147 0.868558C1.47525 1.39026 1.29343 1.99514 1.29343 2.63934C1.29308 3.21926 1.44239 3.7903 1.72813 4.30179C2.01387 4.81328 2.42719 5.24941 2.93143 5.57148C2.34665 5.55368 1.77477 5.40256 1.26339 5.13068V5.17604C1.26333 5.9894 1.5575 6.77774 2.09597 7.40728C2.63445 8.03682 3.38407 8.46879 4.21764 8.62989C3.67516 8.77031 3.1064 8.79099 2.55434 8.69038C2.78952 9.39023 3.24764 10.0022 3.86456 10.4407C4.48147 10.8791 5.2263 11.1221 5.99477 11.1356C4.69025 12.1151 3.07917 12.6463 1.42071 12.644C1.12693 12.6441 0.833396 12.6277 0.541626 12.5949C2.22506 13.6301 4.1847 14.1795 6.18608 14.1774C12.961 14.1774 16.6647 8.8106 16.6647 4.15607C16.6647 4.00485 16.6607 3.85212 16.6536 3.7009C17.374 3.20261 17.9959 2.58557 18.49 1.8787L18.4916 1.87643Z" fill="#FDFEFF"/>
</svg>
